<svg width="177" height="174" viewBox="0 0 177 174" fill="none" xmlns="http://www.w3.org/2000/svg">
<rect width="177" height="174" fill="#F5F5F5"/>
<ellipse cx="88.5" cy="87" rx="88.5" ry="87" fill="#0A0A0A"/>
<path d="M127.016 118V114.544L139.304 106.192V110.224H148.328V118H127.016ZM81.704 118C79.592 118 77.64 117.488 75.848 116.464C74.12 115.44 72.744 114.064 71.72 112.336C70.696 110.544 70.184 108.592 70.184 106.48V60.4C70.184 58.288 70.696 56.368 71.72 54.64C72.744 52.848 74.12 51.44 75.848 50.416C77.64 49.392 79.592 48.88 81.704 48.88H127.784C129.896 48.88 131.816 49.392 133.544 50.416C135.336 51.44 136.744 52.848 137.768 54.64C138.792 56.368 139.304 58.288 139.304 60.4V106.48C139.304 108.592 138.792 110.544 137.768 112.336C136.744 114.064 135.336 115.44 133.544 116.464C131.816 117.488 129.896 118 127.784 118H81.704ZM81.704 110.224H127.784C128.808 110.224 129.672 109.872 130.376 109.168C131.144 108.4 131.528 107.504 131.528 106.48V60.4C131.528 59.376 131.144 58.512 130.376 57.808C129.672 57.04 128.808 56.656 127.784 56.656H81.704C80.68 56.656 79.784 57.04 79.016 57.808C78.312 58.512 77.96 59.376 77.96 60.4V106.48C77.96 107.504 78.312 108.4 79.016 109.168C79.784 109.872 80.68 110.224 81.704 110.224Z" fill="white"/>
<path d="M38.0833 60.75L45.5833 68.5L38.0833 76.25V60.75ZM46.4167 60.75L53.9167 68.5L46.4167 76.25V60.75Z" fill="#FEF7FF"/>
<path d="M99.0833 94.75L106.583 102.5L99.0833 110.25V94.75ZM107.417 94.75L114.917 102.5L107.417 110.25V94.75Z" fill="#FEF7FF"/>
<path d="M42.416 118C40.304 118 38.352 117.488 36.56 116.464C34.832 115.44 33.456 114.064 32.432 112.336C31.408 110.544 30.896 108.592 30.896 106.48V103.792H38.672V106.48C38.672 107.504 39.024 108.4 39.728 109.168C40.496 109.872 41.392 110.224 42.416 110.224H88.496C89.52 110.224 90.384 109.872 91.088 109.168C91.856 108.4 92.24 107.504 92.24 106.48V91.024C92.24 90 91.856 89.136 91.088 88.432C90.384 87.728 89.52 87.376 88.496 87.376H42.416C40.304 87.376 38.352 86.864 36.56 85.84C34.832 84.752 33.456 83.344 32.432 81.616C31.408 79.888 30.896 77.968 30.896 75.856V60.4C30.896 58.288 31.408 56.368 32.432 54.64C33.456 52.848 34.832 51.44 36.56 50.416C38.352 49.392 40.304 48.88 42.416 48.88H88.496C90.608 48.88 92.528 49.392 94.256 50.416C96.048 51.44 97.456 52.848 98.48 54.64C99.504 56.368 100.016 58.288 100.016 60.4V63.088H92.24V60.4C92.24 59.376 91.856 58.512 91.088 57.808C90.384 57.04 89.52 56.656 88.496 56.656H42.416C41.392 56.656 40.496 57.04 39.728 57.808C39.024 58.512 38.672 59.376 38.672 60.4V75.856C38.672 76.88 39.024 77.744 39.728 78.448C40.496 79.152 41.392 79.504 42.416 79.504H88.496C90.608 79.504 92.528 80.048 94.256 81.136C96.048 82.16 97.456 83.536 98.48 85.264C99.504 86.992 100.016 88.912 100.016 91.024V106.48C100.016 108.592 99.504 110.544 98.48 112.336C97.456 114.064 96.048 115.44 94.256 116.464C92.528 117.488 90.608 118 88.496 118H42.416Z" fill="white"/>
</svg>
